<svg width="25" height="24" viewBox="0 0 25 24" fill="none" xmlns="http://www.w3.org/2000/svg">
<path fill-rule="evenodd" clip-rule="evenodd" d="M3.33333 1.91669C2.8731 1.91669 2.5 2.28978 2.5 2.75002C2.5 3.21026 2.8731 3.58335 3.33333 3.58335H5.98359L6.67662 7.04591C6.68032 7.06963 6.68501 7.09301 6.69066 7.11602L8.08263 14.0707C8.19705 14.6459 8.5102 15.1633 8.96706 15.5311C9.42183 15.8972 9.99031 16.0925 10.5739 16.0833H18.6595C19.243 16.0925 19.8115 15.8972 20.2663 15.5311C20.7233 15.1631 21.0364 14.6462 21.1507 14.0707L21.1519 14.0645L22.4852 7.07279C22.5318 6.82883 22.467 6.57684 22.3087 6.38548C22.1504 6.19412 21.915 6.08335 21.6667 6.08335H8.18369L7.48379 2.58647C7.40584 2.19701 7.06385 1.91669 6.66666 1.91669H3.33333ZM8.51727 7.75002H20.6594L19.5154 13.7487C19.4769 13.9394 19.3728 14.1107 19.2211 14.2328C19.0688 14.3554 18.8782 14.4206 18.6826 14.4168L18.6667 14.4167H10.5667L10.5507 14.4168C10.3552 14.4206 10.1645 14.3554 10.0122 14.2328C9.85982 14.1101 9.75546 13.9378 9.71736 13.746L8.51727 7.75002Z" fill="#C2C2C2"/>
<path d="M8.33333 19.4167C8.33333 18.4962 9.07952 17.75 10 17.75C10.9205 17.75 11.6667 18.4962 11.6667 19.4167C11.6667 20.3371 10.9205 21.0833 10 21.0833C9.07952 21.0833 8.33333 20.3371 8.33333 19.4167Z" fill="#C2C2C2"/>
<path d="M17.5 19.4167C17.5 18.4962 18.2462 17.75 19.1667 17.75C20.0871 17.75 20.8333 18.4962 20.8333 19.4167C20.8333 20.3371 20.0871 21.0833 19.1667 21.0833C18.2462 21.0833 17.5 20.3371 17.5 19.4167Z" fill="#C2C2C2"/>
</svg>
