<svg width="24" height="25" viewBox="0 0 24 25" fill="none" xmlns="http://www.w3.org/2000/svg">
<path fill-rule="evenodd" clip-rule="evenodd" d="M6.54554 10.6818V7.95455C6.54554 6.50791 7.12022 5.12053 8.14314 4.0976C9.16607 3.07467 10.5535 2.5 12.0001 2.5C13.4467 2.5 14.8341 3.07467 15.857 4.0976C16.88 5.12053 17.4546 6.50791 17.4546 7.95455V10.6818H18.3637C19.87 10.6818 21.091 11.9029 21.091 13.4091V19.7727C21.091 21.279 19.87 22.5 18.3637 22.5H5.63645C4.13022 22.5 2.90918 21.279 2.90918 19.7727V13.4091C2.90918 11.9029 4.13022 10.6818 5.63645 10.6818H6.54554ZM9.42879 5.38325C10.1107 4.7013 11.0357 4.31818 12.0001 4.31818C12.9645 4.31818 13.8894 4.7013 14.5714 5.38325C15.2533 6.0652 15.6365 6.99012 15.6365 7.95455V10.6818H8.36372V7.95455C8.36372 6.99012 8.74684 6.0652 9.42879 5.38325ZM5.63645 12.5C5.13438 12.5 4.72736 12.907 4.72736 13.4091V19.7727C4.72736 20.2748 5.13438 20.6818 5.63645 20.6818H18.3637C18.8658 20.6818 19.2728 20.2748 19.2728 19.7727V13.4091C19.2728 12.907 18.8658 12.5 18.3637 12.5H5.63645Z" fill="#757575"/>
</svg>
