<svg width="24" height="25" viewBox="0 0 24 25" fill="none" xmlns="http://www.w3.org/2000/svg">
<path fill-rule="evenodd" clip-rule="evenodd" d="M2.00012 7.02972C1.99998 7.03869 1.99996 7.04766 2.00008 7.05662V17.9545C2.00008 19.4566 3.22527 20.6818 4.72734 20.6818H19.2727C20.7748 20.6818 22 19.4566 22 17.9545V7.05672C22.0001 7.04768 22.0001 7.03863 21.9999 7.02958C21.9913 5.53478 20.7695 4.31822 19.2727 4.31822H4.72734C3.23053 4.31822 2.00866 5.53485 2.00012 7.02972ZM3.91514 6.63998C4.06549 6.34269 4.37465 6.1364 4.72734 6.1364H19.2727C19.6254 6.1364 19.9346 6.34269 20.0849 6.63998L12 12.2994L3.91514 6.63998ZM20.1818 8.79153V17.9545C20.1818 18.4524 19.7707 18.8636 19.2727 18.8636H4.72734C4.22942 18.8636 3.81825 18.4524 3.81825 17.9545V8.79153L11.4787 14.1538C11.7917 14.373 12.2083 14.373 12.5214 14.1538L20.1818 8.79153Z" fill="#757575"/>
</svg>
