<svg width="18" height="14" viewBox="0 0 18 14" fill="none" xmlns="http://www.w3.org/2000/svg">
<path fill-rule="evenodd" clip-rule="evenodd" d="M9.00008 4.22222C7.08243 4.22222 5.52786 5.77679 5.52786 7.69445C5.52786 9.6121 7.08243 11.1667 9.00008 11.1667C10.9177 11.1667 12.4723 9.6121 12.4723 7.69445C12.4723 5.77679 10.9177 4.22222 9.00008 4.22222ZM6.91675 7.69445C6.91675 6.54385 7.84949 5.61111 9.00008 5.61111C10.1507 5.61111 11.0834 6.54385 11.0834 7.69445C11.0834 8.84504 10.1507 9.77778 9.00008 9.77778C7.84949 9.77778 6.91675 8.84504 6.91675 7.69445Z" fill="#404040"/>
<path fill-rule="evenodd" clip-rule="evenodd" d="M6.91675 0.0555573C6.68456 0.0555573 6.46773 0.1716 6.33894 0.364793L5.1562 2.13889H2.75008C2.19755 2.13889 1.66764 2.35838 1.27694 2.74908C0.886241 3.13979 0.666748 3.66969 0.666748 4.22222V11.8611C0.666748 12.4136 0.886242 12.9436 1.27694 13.3343C1.66764 13.725 2.19755 13.9444 2.75008 13.9444H15.2501C15.8026 13.9444 16.3325 13.725 16.7232 13.3343C17.1139 12.9436 17.3334 12.4136 17.3334 11.8611V4.22222C17.3334 3.66969 17.1139 3.13979 16.7232 2.74908C16.3325 2.35838 15.8026 2.13889 15.2501 2.13889H12.844L11.6612 0.364793C11.5324 0.1716 11.3156 0.0555573 11.0834 0.0555573H6.91675ZM6.10567 3.21854L7.2884 1.44445H10.7118L11.8945 3.21854C12.0233 3.41174 12.2401 3.52778 12.4723 3.52778H15.2501C15.4343 3.52778 15.6109 3.60094 15.7411 3.73118C15.8714 3.86141 15.9445 4.03805 15.9445 4.22222V11.8611C15.9445 12.0453 15.8714 12.2219 15.7411 12.3522C15.6109 12.4824 15.4343 12.5556 15.2501 12.5556H2.75008C2.5659 12.5556 2.38927 12.4824 2.25904 12.3522C2.1288 12.2219 2.05564 12.0453 2.05564 11.8611V4.22222C2.05564 4.03805 2.1288 3.86141 2.25904 3.73118C2.38927 3.60094 2.5659 3.52778 2.75008 3.52778H5.52786C5.76005 3.52778 5.97688 3.41174 6.10567 3.21854Z" fill="#404040"/>
</svg>
